<?xml version="1.0" encoding="utf-8"?>
<!-- Generator: Adobe Illustrator 16.0.0, SVG Export Plug-In . SVG Version: 6.00 Build 0)  -->
<!DOCTYPE svg PUBLIC "-//W3C//DTD SVG 1.1//EN" "http://www.w3.org/Graphics/SVG/1.1/DTD/svg11.dtd">
<svg version="1.1" id="Layer_1" xmlns="http://www.w3.org/2000/svg" xmlns:xlink="http://www.w3.org/1999/xlink" x="0px" y="0px"
	 width="100%" height="100%" viewBox="0 0 2087.583 672" enable-background="new 0 0 2087.583 672" xml:space="preserve">
<rect y="-1" fill="#ED7423" width="100%" height="100%"/>
<g>
	<path fill="#FFFFFF" d="M447.811,416.651c-11.446,32.128-31.074,57.94-58.873,76.903c-27.802,18.959-58.327,28.445-92.121,28.972
		c-42.521,0.525-80.13-14.227-112.838-44.773c-32.705-31.08-49.604-67.425-50.15-110.089c-1.09-44.774,15.266-83.752,49.06-115.886
		c34.343-32.656,74.134-47.935,120.465-45.302c41.428,2.633,77.409,18.963,107.931,49.517
		c29.435,30.028,44.155,63.737,44.155,101.131v21.603H176.348c3.272,30.021,16.353,55.308,39.791,74.797
		c23.442,19.489,50.695,29.5,82.313,28.969c49.058-0.523,83.942-22.648,105.204-65.841H447.811z M414.557,341.849
		c-5.997-27.918-19.623-50.567-40.881-67.95c-21.262-17.38-46.88-26.338-76.859-26.861c-29.984-0.531-56.147,8.428-78.494,25.809
		c-22.353,17.383-35.979,40.563-41.976,69.002H414.557z"/>
	<path fill="#FFFFFF" d="M939.459,515.148h-43.063V330.793c0-23.178-7.085-43.196-20.712-59.526
		c-13.626-16.327-32.159-24.759-54.507-24.759c-22.897,0-42.521,7.379-59.416,21.6c-16.353,14.22-24.535,32.134-24.535,53.729
		v193.313h-43.603V321.836c0-21.595-8.177-39.509-25.075-53.729c-16.355-14.221-35.978-21.6-58.871-21.6
		c-22.349,0-40.339,8.432-53.967,24.759c-13.626,16.33-20.166,35.822-20.166,59.526v184.355h-43.065V335.527
		c0-37.394,10.901-67.947,33.253-90.596c20.713-21.6,47.965-33.713,81.764-36.349c45.241-3.687,81.218,15.276,107.928,55.838
		c26.712-40.562,62.686-59.524,107.931-55.838c33.794,2.635,61.047,14.749,82.309,36.349c22.348,22.649,33.794,53.202,33.794,90.596
		V515.148z"/>
	<path fill="#FFFFFF" d="M1569.256,366.612c1.091,43.19-14.721,80.591-47.969,112.188c-33.257,31.082-71.953,46.358-116.653,44.775
		c-43.06-1.055-80.126-16.853-110.108-47.404c-29.985-30.552-44.699-66.9-44.699-109.038c0-43.722,16.349-81.644,48.514-112.719
		c32.157-31.609,70.863-46.883,115.564-45.303c45.783,1.582,83.945,19.489,114.467,53.203V111.138h40.885V366.612z
		 M1405.179,484.075c34.338,1.576,63.23-9.486,87.217-34.241c24.531-24.756,35.976-53.201,34.886-86.383
		c-0.544-31.605-12.535-58.473-34.886-81.125c-22.349-22.649-49.064-33.71-81.218-33.71c-32.707-0.522-61.058,11.062-84.495,33.71
		c-23.438,22.652-34.882,49.52-35.426,81.648c-0.546,31.604,10.354,59.523,32.705,83.229
		C1346.311,470.906,1373.014,483.023,1405.179,484.075"/>
	<path fill="#FFFFFF" d="M1656.442,436.141c0,10.01,6,20.542,17.439,31.606c11.453,11.054,23.99,16.328,37.074,15.798
		c17.443-0.521,31.063-5.267,41.426-15.276c9.265-8.953,13.629-21.065,14.174-35.817c0.545-25.811-14.719-43.19-45.246-52.67
		l-36.521-11.064c-38.16-11.589-58.327-36.871-59.961-75.324c-1.09-23.177,7.088-43.191,23.981-59.524
		c17.448-16.33,38.161-25.286,62.693-26.34c21.257-1.049,40.88,5.797,58.867,20.018c18.534,14.223,28.347,31.603,29.983,52.672
		l0.545,8.958h-43.611v-6.851c0-21.065-21.808-35.286-45.784-35.286c-23.442,0.522-43.07,17.905-43.616,41.084
		c-1.629,21.596,12,36.871,39.797,45.828l35.976,11.585c41.427,13.701,63.774,40.562,66.503,80.062
		c2.18,26.871-7.63,50.572-29.437,70.593c-21.808,19.487-46.876,28.44-75.222,26.859c-26.163-1.583-47.966-12.114-65.959-30.552
		c-17.438-18.435-26.163-40.56-26.163-66.369h43.062V436.141z"/>
	<path fill="#FFFFFF" d="M959.055-2c0,0,33.156,252.08,298.394,112.414c0,0-339.083,173.731-6.027,437.735
		C1251.421,548.148,971.109,427.219,959.055-2"/>
	<path fill="#FFFFFF" d="M1127.844,55.91c-12.068,0-21.854-11.056-21.854-24.697c0-1.119,0.087-2.214,0.216-3.293
		c-4.064-1.697-8.438-2.668-13.023-2.668c-20.811,0-37.676,19.064-37.676,42.581c0,23.52,16.866,42.581,37.676,42.581
		c20.807,0,37.676-19.062,37.676-42.581c0-4.171-0.557-8.195-1.546-12.007C1128.826,55.863,1128.341,55.91,1127.844,55.91"/>
	<path fill="#FFFFFF" d="M1151.956,26.955c0,13.641-9.783,24.697-21.852,24.697c-12.069,0-21.852-11.056-21.852-24.697
		c0-13.639,9.782-24.697,21.852-24.697C1142.173,2.258,1151.956,13.316,1151.956,26.955"/>
</g>
<text transform="matrix(1 0 0 1 206.7861 634.7402)" fill="#010101" font-family="'AbeatbyKai'" font-size="100" letter-spacing="25">experience partnership</text>
</svg>
